# xmcd CD database file
#
# Track frame offsets:
#	150
#	23047
#	52782
#	71640
#	90335
#	112890
#	139090
#	169402
#	198632
#	220482
#
# Disc length: 3189 seconds
#
# Revision: 0
# Processed by: cddbd v1.5PL3 Copyright (c) Steve Scherf et al.
# Submitted via: CDex 1.50
#
DISCID=890c730a
DTITLE=Blues File No.1 - Blues File No.1 〜 遊び足りない子供たちへ 〜
DYEAR=1900
DGENRE=Blues
TTITLE0=月のない夜
TTITLE1=Going to New York
TTITLE2=Alright Okey you win
TTITLE3=ルイジアンナ
TTITLE4=Shining Road
TTITLE5=Forever
TTITLE6=If it ain't me
TTITLE7=Get out of my life woman
TTITLE8=笑って消えるさ
TTITLE9=Soul Bound
EXTD=
EXTT0=
EXTT1=
EXTT2=
EXTT3=
EXTT4=
EXTT5=
EXTT6=
EXTT7=
EXTT8=
EXTT9=
PLAYORDER=
